<svg xmlns="http://www.w3.org/2000/svg" class="icon" style="width: 1em; height: 1em;vertical-align: middle;fill: currentColor;overflow: hidden;" viewBox="0 0 1024 1024" t="1498465911167" p-id="5383" version="1.1"><path fill="#e6e6e6" d="M 843.9 512.2 c 5.4 -6.7 10.5 -13.5 15.4 -20.3 c 57 -79.1 71.7 -151.6 41.5 -204 c -30.2 -52.4 -100.3 -75.9 -197.4 -66.1 c -8.3 0.8 -16.7 1.9 -25.3 3.2 c -3.1 -8 -6.4 -15.9 -9.9 -23.5 c -40.1 -88.9 -95.4 -137.9 -155.9 -137.9 s -115.9 49 -155.9 137.9 c -3.4 7.6 -6.7 15.4 -9.9 23.5 c -8.5 -1.3 -17 -2.4 -25.3 -3.2 c -97 -9.8 -167.1 13.7 -197.4 66.1 c -30.2 52.4 -15.5 124.8 41.5 204 c 4.9 6.8 10 13.5 15.4 20.3 c -5.4 6.7 -10.5 13.5 -15.4 20.3 c -57 79.2 -71.7 151.6 -41.5 204 c 25.8 44.6 80.4 68.3 156 68.3 c 13.2 0 27 -0.7 41.4 -2.2 c 8.3 -0.8 16.7 -1.9 25.3 -3.2 c 3.1 8 6.4 15.9 9.9 23.5 c 40.1 88.9 95.4 137.9 155.9 137.9 s 115.9 -49 155.9 -137.9 c 3.4 -7.6 6.7 -15.4 9.9 -23.5 c 8.5 1.3 17 2.4 25.3 3.2 c 14.4 1.5 28.2 2.2 41.4 2.2 c 75.6 0 130.2 -23.6 156 -68.3 c 30.2 -52.4 15.5 -124.8 -41.5 -204 c -4.9 -6.8 -10 -13.5 -15.4 -20.3 Z M 707.8 265.7 c 77.7 -7.8 134.1 8.3 154.9 44.3 c 20.8 36 6.5 92.9 -39.1 156.3 c -2.9 4 -5.9 8.1 -9.1 12.1 c -27.6 -29.5 -59.8 -58.3 -95.5 -85.5 c -5.7 -44.5 -14.5 -86.8 -26.3 -125.4 c 5.1 -0.7 10.1 -1.3 15.1 -1.8 Z M 597.4 659.6 c -28.2 16.3 -56.7 30.8 -85.1 43.4 c -28.4 -12.6 -56.9 -27.2 -85.1 -43.4 c -28.2 -16.3 -55 -33.7 -80.2 -52 c -3.2 -30.9 -4.9 -62.8 -4.9 -95.4 s 1.7 -64.5 4.9 -95.4 c 25.1 -18.2 52 -35.7 80.2 -52 c 28.2 -16.3 56.7 -30.8 85.1 -43.4 c 28.4 12.6 56.9 27.2 85.1 43.4 c 28.2 16.3 55 33.7 80.2 52 c 3.2 30.9 4.9 62.8 4.9 95.4 c 0 32.6 -1.7 64.5 -4.9 95.4 c -25.2 18.3 -52 35.7 -80.2 52 Z m 71.8 7.3 c -5.2 29 -11.9 56.5 -20 82.3 c -26.3 -5.8 -53.6 -13.8 -81.3 -23.8 c 17.2 -8.6 34.4 -17.9 51.5 -27.7 c 17.1 -9.9 33.7 -20.2 49.8 -30.8 Z m -212.4 58.5 c -27.7 10 -54.9 18 -81.3 23.8 c -8.1 -25.7 -14.8 -53.3 -20 -82.3 c 16.1 10.6 32.7 20.9 49.8 30.8 c 17 9.8 34.2 19.1 51.5 27.7 Z M 299.9 570.7 c -22.5 -19 -43 -38.6 -61.2 -58.5 c 18.2 -19.9 38.8 -39.5 61.2 -58.5 c -1.2 19.2 -1.8 38.8 -1.8 58.5 c 0.1 19.7 0.7 39.3 1.8 58.5 Z m 55.6 -213.2 c 5.2 -29 11.9 -56.5 20 -82.3 c 26.3 5.8 53.6 13.8 81.3 23.8 c -17.2 8.6 -34.4 17.9 -51.5 27.7 c -17.1 9.9 -33.7 20.2 -49.8 30.8 Z m 212.4 -58.4 c 27.7 -10 54.9 -18 81.3 -23.8 c 8.1 25.7 14.8 53.3 20 82.3 c -16.1 -10.6 -32.7 -20.9 -49.8 -30.8 c -17.1 -9.9 -34.3 -19.1 -51.5 -27.7 Z m 156.8 154.7 c 22.5 19 43 38.6 61.2 58.5 c -18.2 19.9 -38.8 39.5 -61.2 58.5 c 1.2 -19.2 1.8 -38.8 1.8 -58.5 c 0 -19.8 -0.6 -39.3 -1.8 -58.5 Z M 396.5 219.7 c 32.1 -71.2 74.3 -112 115.8 -112 s 83.8 40.8 115.8 112 c 2 4.5 4 9.2 6 13.9 c -39.4 9.1 -80.4 22.6 -121.8 39.9 c -41.4 -17.4 -82.4 -30.8 -121.8 -39.9 c 2 -4.7 4 -9.4 6 -13.9 Z M 201.1 466.2 C 155.5 402.9 141.2 345.9 162 310 c 17.3 -30 59.5 -46.2 118.1 -46.2 c 11.6 0 23.9 0.6 36.7 1.9 c 5 0.5 10 1.1 15 1.8 c -11.8 38.7 -20.6 80.9 -26.3 125.4 c -35.7 27.2 -67.9 56 -95.5 85.5 c -3 -4.1 -6 -8.1 -8.9 -12.2 Z m 115.8 292.6 c -77.6 7.8 -134.1 -8.3 -154.9 -44.3 s -6.5 -92.9 39.1 -156.3 c 2.9 -4 5.9 -8.1 9.1 -12.1 c 27.6 29.5 59.8 58.3 95.5 85.5 c 5.7 44.5 14.5 86.8 26.3 125.4 c -5.1 0.7 -10.2 1.3 -15.1 1.8 Z m 311.2 46 c -32.1 71.2 -74.3 112 -115.8 112 s -83.8 -40.8 -115.8 -112 c -2 -4.5 -4 -9.2 -6 -13.9 c 39.4 -9.1 80.4 -22.6 121.8 -39.9 c 41.4 17.4 82.4 30.8 121.8 39.9 c -1.9 4.7 -3.9 9.3 -6 13.9 Z m 234.6 -90.3 c -20.8 36 -77.2 52.1 -154.9 44.3 c -5 -0.5 -10 -1.1 -15 -1.8 c 11.8 -38.7 20.6 -80.9 26.3 -125.4 c 35.7 -27.2 67.9 -56 95.5 -85.5 c 3.1 4 6.1 8.1 9.1 12.1 c 45.5 63.3 59.7 120.3 39 156.3 Z" p-id="5384" /><path fill="#e6e6e6" d="M 512.3 427.1 c -46.9 0 -85.1 38.2 -85.1 85.1 c 0 46.9 38.2 85.1 85.1 85.1 c 46.9 0 85.1 -38.2 85.1 -85.1 c 0 -46.9 -38.1 -85.1 -85.1 -85.1 Z m 0 126.2 c -22.7 0 -41.1 -18.4 -41.1 -41.1 c 0 -22.7 18.4 -41.1 41.1 -41.1 c 22.7 0 41.1 18.4 41.1 41.1 c 0 22.7 -18.4 41.1 -41.1 41.1 Z" p-id="5385" /></svg>