<?xml version="1.0" encoding="utf-8"?>
<!-- Generator: Adobe Illustrator 21.1.0, SVG Export Plug-In . SVG Version: 6.00 Build 0)  -->
<svg version="1.1" id="图层_1" xmlns="http://www.w3.org/2000/svg" xmlns:xlink="http://www.w3.org/1999/xlink" x="0px" y="0px"
	 viewBox="0 0 200 200" style="enable-background:new 0 0 200 200;" xml:space="preserve">
<style type="text/css">
	.st0{opacity:0.4;fill:#FFFFFF;}
</style>
<path class="st0" d="M123.6,102.3l50.1-50.1c6.5-6.5,6.5-17.1,0-23.6c-6.5-6.5-17.1-6.5-23.6,0L100,78.8L49.9,28.7
	c-6.5-6.5-17.1-6.5-23.6,0c-6.5,6.5-6.5,17.1,0,23.6l50.1,50.1l-50.1,50.1c-6.5,6.5-6.5,17.1,0,23.6c6.5,6.5,17.1,6.5,23.6,0
	l50.1-50.1l50.1,50.1c6.5,6.5,17.1,6.5,23.6,0c6.5-6.5,6.5-17.1,0-23.6L123.6,102.3z"/>
</svg>
