<svg xmlns="http://www.w3.org/2000/svg" class="icon" style="width: 1em; height: 1em;vertical-align: middle;fill: currentColor;overflow: hidden;" viewBox="0 0 1024 1024" t="1498524756103" p-id="2385" version="1.1"><path fill="#dbdbdb" d="M 280.992 533.504 l 416.672 416.768 c 12.544 12.48 32.8 12.512 45.312 0 c 12.544 -12.512 12.544 -32.832 0.032 -45.312 l -373.504 -373.568 c 0 0 0.736 0.736 -10.496 -10.496 c -11.232 -11.2 1.088 -21.312 1.088 -21.312 l 10.688 -10.688 l 369.952 -369.952 c 12.544 -12.512 12.544 -32.736 0 -45.248 c -12.512 -12.512 -32.768 -12.544 -45.28 0 l -412.032 412 c -0.448 0.448 -0.768 0.832 -1.152 1.248 c -0.512 0.448 -0.896 0.8 -1.28 1.216 C 268.48 500.672 268.48 521.024 280.992 533.504 Z" p-id="2386" /></svg>