<?xml version="1.0" encoding="utf-8"?>
<!-- Generator: Adobe Illustrator 21.1.0, SVG Export Plug-In . SVG Version: 6.00 Build 0)  -->
<svg version="1.1" id="图层_1" xmlns="http://www.w3.org/2000/svg" xmlns:xlink="http://www.w3.org/1999/xlink" x="0px" y="0px"
	 viewBox="0 0 200 200" style="enable-background:new 0 0 200 200;" xml:space="preserve">
<style type="text/css">
	.st0{opacity:0.4;fill:#FFFFFF;}
</style>
<path class="st0" d="M69.4,38.5H28.4c-6.1,0-10.2-4.1-10.2-10.2l0,0c0-6.1,4.1-10.2,10.2-10.2h40.9c6.1,0,10.2,4.1,10.2,10.2l0,0
	C79.6,34.4,75.5,38.5,69.4,38.5L69.4,38.5z"/>
<path class="st0" d="M18.1,69.3V28.3c0-6.1,4.2-10.2,10.3-10.2l0,0c6.1,0,10.3,4.1,10.3,10.2v40.9c0,6.1-4.2,10.2-10.3,10.2l0,0
	C22.2,79.5,18.1,75.4,18.1,69.3L18.1,69.3z"/>
<path class="st0" d="M18.1,171.6v-40.9c0-6.1,4.2-10.2,10.3-10.2l0,0c6.1,0,10.3,4.1,10.3,10.2v40.9c0,6.1-4.2,10.2-10.3,10.2l0,0
	C22.2,181.8,18.1,177.7,18.1,171.6L18.1,171.6z"/>
<path class="st0" d="M69.4,181.8H28.4c-6.1,0-10.2-4.1-10.2-10.2l0,0c0-6.1,4.1-10.2,10.2-10.2h40.9c6.1,0,10.2,4.1,10.2,10.2l0,0
	C79.6,177.7,75.5,181.8,69.4,181.8L69.4,181.8z"/>
<path class="st0" d="M130.8,38.5h40.9c6.1,0,10.2-4.1,10.2-10.2l0,0c0-6.1-4.1-10.2-10.2-10.2h-40.9c-6.1,0-10.2,4.1-10.2,10.2l0,0
	C120.5,34.4,124.6,38.5,130.8,38.5L130.8,38.5z"/>
<path class="st0" d="M182,69.3V28.3c0-6.1-4.2-10.2-10.3-10.2l0,0c-6.1,0-10.3,4.1-10.3,10.2v40.9c0,6.1,4.2,10.2,10.3,10.2l0,0
	C177.8,79.5,182,75.4,182,69.3L182,69.3z"/>
<path class="st0" d="M182,171.6v-40.9c0-6.1-4.2-10.2-10.3-10.2l0,0c-6.1,0-10.3,4.1-10.3,10.2v40.9c0,6.1,4.2,10.2,10.3,10.2l0,0
	C177.8,181.8,182,177.7,182,171.6L182,171.6z"/>
<path class="st0" d="M130.8,181.8h40.9c6.1,0,10.2-4.1,10.2-10.2l0,0c0-6.1-4.1-10.2-10.2-10.2h-40.9c-6.1,0-10.2,4.1-10.2,10.2l0,0
	C120.5,177.7,124.6,181.8,130.8,181.8L130.8,181.8z"/>
</svg>
