<?xml version="1.0" standalone="no"?><!DOCTYPE svg PUBLIC "-//W3C//DTD SVG 1.1//EN" "http://www.w3.org/Graphics/SVG/1.1/DTD/svg11.dtd"><svg class="icon" width="200px" height="200.00px" viewBox="0 0 1024 1024" version="1.1" xmlns="http://www.w3.org/2000/svg"><path d="M355.12102 197.10617l-209.573109 0c-31.435966 0-52.393277-20.75265-52.393277-52.188616l0 0c0-31.435966 20.957311-52.188616 52.393277-52.188616l209.573109 0c31.435966 0 52.393277 20.75265 52.393277 52.188616l0 0C407.514297 176.35352 386.556986 197.10617 355.12102 197.10617L355.12102 197.10617z" fill="#707070" /><path d="M92.641957 354.678952l0-209.573109c0-31.435966 21.264303-52.393277 52.700269-52.393277l0 0c31.435966 0 52.700269 20.957311 52.700269 52.393277l0 209.573109c0 31.435966-21.264303 52.393277-52.700269 52.393277l0 0C113.90626 407.072229 92.641957 386.114918 92.641957 354.678952L92.641957 354.678952z" fill="#707070" /><path d="M92.641957 878.611725l0-209.573109c0-31.435966 21.264303-52.393277 52.700269-52.393277l0 0c31.435966 0 52.700269 20.957311 52.700269 52.393277l0 209.573109c0 31.435966-21.264303 52.393277-52.700269 52.393277l0 0C113.90626 931.005003 92.641957 910.047692 92.641957 878.611725L92.641957 878.611725z" fill="#707070" /><path d="M355.12102 930.816714l-209.573109 0c-31.435966 0-52.393277-20.75265-52.393277-52.188616l0 0c0-31.435966 20.957311-52.188616 52.393277-52.188616l209.573109 0c31.435966 0 52.393277 20.75265 52.393277 52.188616l0 0C407.514297 910.064065 386.556986 930.816714 355.12102 930.816714L355.12102 930.816714z" fill="#707070" /><path d="M669.480684 197.10617l209.573109 0c31.435966 0 52.393277-20.75265 52.393277-52.188616l0 0c0-31.435966-20.957311-52.188616-52.393277-52.188616l-209.573109 0c-31.435966 0-52.393277 20.75265-52.393277 52.188616l0 0C617.087407 176.35352 638.044718 197.10617 669.480684 197.10617L669.480684 197.10617z" fill="#707070" /><path d="M931.753039 354.678952l0-209.573109c0-31.435966-21.264303-52.393277-52.700269-52.393277l0 0c-31.435966 0-52.700269 20.957311-52.700269 52.393277l0 209.573109c0 31.435966 21.264303 52.393277 52.700269 52.393277l0 0C910.488737 407.072229 931.753039 386.114918 931.753039 354.678952L931.753039 354.678952z" fill="#707070" /><path d="M931.753039 878.611725l0-209.573109c0-31.435966-21.264303-52.393277-52.700269-52.393277l0 0c-31.435966 0-52.700269 20.957311-52.700269 52.393277l0 209.573109c0 31.435966 21.264303 52.393277 52.700269 52.393277l0 0C910.488737 931.005003 931.753039 910.047692 931.753039 878.611725L931.753039 878.611725z" fill="#707070" /><path d="M669.480684 930.816714l209.573109 0c31.435966 0 52.393277-20.75265 52.393277-52.188616l0 0c0-31.435966-20.957311-52.188616-52.393277-52.188616l-209.573109 0c-31.435966 0-52.393277 20.75265-52.393277 52.188616l0 0C617.087407 910.064065 638.044718 930.816714 669.480684 930.816714L669.480684 930.816714z" fill="#707070" /></svg>