<?xml version="1.0" standalone="no"?><!DOCTYPE svg PUBLIC "-//W3C//DTD SVG 1.1//EN" "http://www.w3.org/Graphics/SVG/1.1/DTD/svg11.dtd"><svg class="icon" width="200px" height="199.80px" viewBox="0 0 1025 1024" version="1.1" xmlns="http://www.w3.org/2000/svg"><path d="M697.112208 413.306756c-20.615846 0-41.265824 0.034132-61.949935 0.238925-45.39582 0-87.241892-38.193927-93.317423-85.159828-0.716776-4.949168-0.955701-9.79594-0.955701-14.710976L540.889149 100.655845c0-47.853338 32.562115-89.221559 77.514216-98.471384 5.324623-1.023966 10.683377-1.604213 16.281057-1.604213 98.607913 0 197.181694 0 295.823739 0.136529 44.371854 0 85.774208 37.545415 92.327589 83.692144 0.716776 5.29049 0.989834 10.512716 0.989834 15.905603l0.136529 66.489517c0.136529 49.798873 0.238925 99.666011-0.273058 149.533149-0.443719 37.818473-17.88527 66.830839-51.915069 86.28619-12.697177 7.338422-26.793774 10.88817-43.040699 10.88817L697.112208 413.306756zM651.75052 65.499683c-26.725509 0-48.638379 22.766174-48.774908 50.822839-0.102397 40.207726 0 181.344355 0 181.344355 0 7.406686 1.467684 14.335522 4.368921 20.649978 8.737842 19.59188 23.79014 30.0022 43.655078 30.138729 18.431386 0.204793 36.862771 0.238925 55.328289 0.238925l207.080031-0.102397c26.862038-0.170661 48.058131-21.742209 48.228792-49.082097 0.443719-61.779274 0.443719-123.353755 0-184.962368-0.170661-26.89617-21.947002-48.911436-48.535982-49.082097l-130.692177-0.102397L651.75052 65.499683z" fill="#8a8a8a" /><path d="M251.994246 1022.464051c-53.689944 0-107.345755-0.170661-161.035699-0.443719-23.414686-0.068264-44.679044-10.137262-63.246958-29.968068-18.328989-19.59188-27.681211-43.347888-27.681211-70.517116 0 0-0.068264-164.824373 0-211.824406 0.170661-47.716809 31.538149-88.231726 76.251325-98.437252 4.915036-1.160495 10.205526-1.774874 15.598413-1.774874l232.167194 0.102397c21.639812 0 43.313756-0.068264 65.021833-0.273058 44.781441 0 85.569414 36.453185 92.907836 83.043632 1.160495 7.30429 1.228759 14.881637 1.228759 21.332622l0.068264 87.378421c-0.034132 38.944835-0.068264 77.787274 0.102397 116.527316 0.136529 29.012366-8.191727 52.597713-25.462618 72.189594-18.80684 21.29849-40.753842 32.152528-65.226626 32.220793C345.789519 1022.327522 298.926014 1022.464051 251.994246 1022.464051zM110.823485 674.452185c-27.954268 0.170661-48.365321 21.810473-48.50185 51.471351-0.273058 37.989134-0.238925 75.978267-0.204793 114.001533l0.068264 65.943402c0 28.978234 21.878737 51.642012 49.798873 51.642012l259.507083 0c7.031232 0 13.925936-1.501817 20.547582-4.50545 19.660145-9.386354 29.285424-25.633279 29.285424-49.525816 0.136529-58.29779 0.136529-116.800373 0-175.098163 0-12.28759-2.525782-22.254192-7.816273-30.548315-10.000733-15.734942-24.199727-23.380554-43.382021-23.380554-42.870038-0.102397-201.277557-0.170661-201.482351-0.170661C149.358733 674.281524 130.108175 674.315656 110.823485 674.452185z" fill="#8a8a8a" /><path d="M42.115375 336.816506l62.222993 0c14.369654 0 19.489484-5.324623 19.626012-20.376921C124.169173 287.393087 127.889582 259.60948 135.125608 233.942069c16.349322-59.082831 46.351522-109.735009 89.221559-150.420586 42.699377-40.41252 93.283291-66.762575 150.420586-78.401653 10.615113-2.150328 22.049398-3.583881 34.848972-4.471318L418.661757 0l0.068264 65.055965-8.021066 0.443719c-22.766174 1.160495-44.952102 6.382721-69.902737 16.349322C314.080709 92.737175 289.06181 109.052365 266.432164 130.350855c-25.565014 24.09733-45.39582 52.495317-59.014566 84.40892C196.631824 239.642145 189.668856 266.91377 186.699355 295.789607c-0.716776 7.816273-1.023966 15.598413-1.023966 23.31229 0 11.741475 5.427019 17.441552 16.554115 17.441552l73.008766 0-117.005166 121.271691L42.115375 336.816506z" fill="#8a8a8a" /><path d="M610.791886 958.056598l8.123463-0.30719c14.437919-0.511983 26.657245-3.140162 42.90417-7.474951 32.869304-8.737842 63.076297-24.677577 89.801807-47.375487 41.19756-34.780707 69.015299-78.640579 82.804707-130.316723 6.450985-24.506916 9.522883-46.385654 9.352222-66.864971-0.136529-13.175027-5.870738-19.284691-18.021799-19.421219l-72.838105 0 118.30219-121.203427 55.089364 57.649278 61.028366 63.520016-56.966634 0c-20.786507 0-24.165594 1.774874-24.882371 25.906336-1.809006 68.878771-23.482951 131.852672-64.543982 187.283357-28.466251 38.535249-64.407453 69.117696-106.833772 90.928169-32.869304 16.895437-65.158361 26.964435-98.812706 30.650712l-6.143795 0.443719c-2.764708 0.170661-5.700077 0.341322-8.533049 0.819173L610.86015 1023.965868 610.791886 958.056598z" fill="#8a8a8a" /></svg>