<?xml version="1.0" standalone="no"?><!DOCTYPE svg PUBLIC "-//W3C//DTD SVG 1.1//EN" "http://www.w3.org/Graphics/SVG/1.1/DTD/svg11.dtd"><svg class="icon" width="200px" height="174.00px" viewBox="0 0 1177 1024" version="1.1" xmlns="http://www.w3.org/2000/svg"><path d="M886.512814 884.287567 886.512814 884.287567c-20.303084 0-36.780949-16.459475-36.780949-36.780949s16.477865-36.780949 36.780949-36.780949l10.48257 0c125.809235 0 208.860617-139.694043 208.860617-265.043516 0-137.744653-119.832331-248.602432-256.436774-251.471346l-26.519064-0.570105-7.852733-25.323683C777.089492 145.542214 695.012805 73.561897 548.918877 73.561897c-182.267991 0-300.169322 135.133205-300.169322 314.293206l0.275857 0.422981 2.979257 33.72813-33.378711 5.756218c-81.341068 13.97676-146.18588 97.414342-146.18588 189.900038 0 104.660189 81.065211 193.063199 175.665811 193.063199l32.698263 0c20.303084 0 36.780949 16.459475 36.780949 36.780949s-16.477865 36.780949-36.780949 36.780949l-32.698263 0C113.61635 884.287567 0 762.193208 0 617.66247c0-118.066845 73.764192-222.304053 175.941668-254.983926C188.704657 157.348898 336.968661 0 548.918877 0 715.463013 0 825.732296 86.214544 877.04172 222.340834c166.32345 17.893932 299.360141 153.56046 299.360141 323.341319 0 157.937393-106.002694 333.658375-289.907437 338.49507L886.494424 884.287567z" fill="#8a8a8a" /><path d="M587.685997 945.012913l118.066845-130.204558c10.280275-10.740037 26.905264-10.740037 37.167149 0l9.268799 7.392971c10.280275 10.776818 10.280275 23.558198 0 34.298235l-136.126291 149.128356c-0.183905 0.220686-0.257467 0.422981-0.422981 0.606886l-9.30558 9.746951c-5.094161 5.388409-11.880246 8.055028-18.647941 7.999856-6.786085 0.036781-13.535389-2.629838-18.721503-7.999856l-9.30558-9.746951c-0.183905-0.183905-0.220686-0.422981-0.3862-0.606886l-132.760834-146.829547c-10.280275-10.740037-10.280275-28.119035 0-38.895853l9.268799-5.094161c10.280275-10.740037 26.942045-8.441228 37.20393 2.298809L587.685997 945.012913z" fill="#8a8a8a" /><path d="M588.072197 497.002568c20.303084 0 36.780949 16.477865 36.780949 36.780949l0 404.590435c0 20.321474-16.477865 36.780949-36.780949 36.780949s-36.780949-16.459475-36.780949-36.780949l0-404.590435C551.291248 513.480433 567.750723 497.002568 588.072197 497.002568z" fill="#8a8a8a" /></svg>