<?xml version="1.0" standalone="no"?><!DOCTYPE svg PUBLIC "-//W3C//DTD SVG 1.1//EN" "http://www.w3.org/Graphics/SVG/1.1/DTD/svg11.dtd"><svg class="icon" width="200px" height="200.00px" viewBox="0 0 1024 1024" version="1.1" xmlns="http://www.w3.org/2000/svg"><path d="M778.854209 697.984878c30.108738-0.327458 57.752332-12.467963 77.113285-32.074509l0 0c19.851117-20.344351 31.991622-47.495734 31.991622-78.259388 0-26.989701-9.268084-51.437509-25.512047-71.043033-16.080234-19.279089-39.130206-32.730449-65.543785-37.407981-16.821107-3.197832-28.876678-17.554818-28.876678-34.043351l0-0.164752c0-65.38108-26.333762-124.855636-69.483514-167.676907-42.658565-42.822294-102.21601-69.482491-167.349449-69.482491-48.483224 0-93.354178 14.436804-130.680295 38.637995-38.637995 26.004257-68.989257 62.017472-87.612407 105.003496-5.332449 13.044084-17.555841 20.835538-31.009248 21.328771-42.329061 2.131547-79.983659 21.00029-107.874893 50.368154-27.399023 28.876678-44.13315 68.252477-44.13315 111.565958 0 45.283346 18.210757 86.135776 47.579645 115.503641l0.49221 0c29.368888 29.696346 69.974701 47.743374 114.764813 47.743374l14.437827 0 0.820692 0 88.187505 0 10.253528 0c19.114336 0 34.782178 15.589047 34.782178 34.538631 0 18.784832-15.668865 34.370809-34.782178 34.370809l-10.253528 0-88.187505 0-0.820692 0L292.72032 766.893294c-63.904449 0-122.147968-25.594935-163.902954-68.251454-41.837874-41.756009-67.842131-99.753935-67.842131-163.905 0-61.196781 23.954575-117.389594 63.165622-158.980851 34.700313-36.504402 81.624019-61.688991 134.289496-70.057589 24.282033-47.414893 60.46-87.038332 104.429421-115.995851 48.235584-31.993668 106.316397-50.615794 168.33387-50.615794 84.165912 0 160.786986 34.290991 216.322837 89.581248 49.387827 49.631374 82.20014 115.91501 88.517009 189.5818 30.845519 10.335393 58.32436 29.859052 78.916351 54.305837 26.332738 31.174 42.00058 71.533196 42.00058 115.095341 0 49.628304-20.097734 94.420463-52.338019 126.988206l-0.246617 0c-28.136827 28.29851-66.116837 46.841841-108.365056 51.517327-2.543939 0.245593-5.169743 0.737804-7.794523 0.737804l-9.187243 0-1.231037 0L624.630708 766.894318l-1.475608 0c-18.952654 0-34.209126-15.584953-34.209126-34.370809 0-18.949584 15.256472-34.538631 34.209126-34.538631l1.475608 0L778.854209 697.984878 778.854209 697.984878zM494.524488 401.679405 494.524488 401.679405l-0.490164 0L328.89931 566.731532c-8.204869 7.874341-8.204869 20.919449 0 29.449729 8.120958 7.792477 21.245883 7.792477 29.367865 0l129.940444-129.941468 0 472.925053c0 11.32186 9.270131 20.839631 20.754696 20.839631s20.837584-9.517771 20.837584-20.839631L529.7999 466.239793l130.187061 129.941468c7.957229 7.792477 20.919449 7.792477 29.287023 0 7.792477-8.53028 7.792477-21.575388 0-29.449729L523.400143 401.679405l-0.984421-0.983397 0-0.493234-0.820692-0.491187-0.410346-0.491187c-0.737804-0.49221-1.64036-0.985444-2.213411-1.723248l-0.902556 0-0.49221-0.49221c-1.067308-0.574075-1.723248-0.738827-2.87242-0.738827l0 0-2.050706-0.49221-1.639337-0.491187-1.477654 0-0.738827 0-1.476631 0-1.968841 0.491187-1.723248 0.49221-0.575098 0c-0.819668 0-1.722224 0.164752-2.623757 0.738827l-0.574075 0.49221-0.655939 0c-0.821715 0.737804-1.725294 1.231037-2.297322 1.723248l-0.411369 0.491187-0.984421 0.491187 0 0.493234L494.524488 401.679405 494.524488 401.679405zM508.798587 395.281695 508.798587 395.281695l0.163729 0 0.575098 0L508.798587 395.281695 508.798587 395.281695z" fill="#8a8a8a" /></svg>