<?xml version="1.0" standalone="no"?><!DOCTYPE svg PUBLIC "-//W3C//DTD SVG 1.1//EN" "http://www.w3.org/Graphics/SVG/1.1/DTD/svg11.dtd"><svg class="icon" width="200px" height="200.00px" viewBox="0 0 1024 1024" version="1.1" xmlns="http://www.w3.org/2000/svg"><path d="M462.208 163.904l316.736 316.8-361.984 361.984-316.8-316.736L462.208 163.904M416.96 118.656 54.912 480.704c-25.088 25.024-25.088 65.472 0 90.496l316.8 316.736c25.024 25.088 65.408 25.088 90.496 0l361.984-361.984c25.024-25.024 25.024-65.472 0-90.496l-316.736-316.8C482.496 93.632 441.984 93.632 416.96 118.656L416.96 118.656z" fill="#8a8a8a" /><path d="M145.408 73.344c-12.48 12.544-12.48 32.768 0 45.248L439.616 412.8c12.48 12.48 32.768 12.48 45.248 0l0 0c12.48-12.48 12.48-32.768 0-45.248L190.656 73.344C178.176 60.864 157.888 60.864 145.408 73.344L145.408 73.344z" fill="#8a8a8a" /></svg>