<?xml version="1.0" standalone="no"?><!DOCTYPE svg PUBLIC "-//W3C//DTD SVG 1.1//EN" "http://www.w3.org/Graphics/SVG/1.1/DTD/svg11.dtd"><svg class="icon" width="200px" height="200.00px" viewBox="0 0 1024 1024" version="1.1" xmlns="http://www.w3.org/2000/svg"><path d="M909.653333 902.826667c3.413333-15.36-6.826667-32.426667-23.893333-34.133333l-46.08-8.533333c124.586667-95.573333 187.733333-256 155.306667-413.013333-37.546667-180.906667-191.146667-317.44-375.466667-331.093333-17.066667-1.706667-30.72 10.24-32.426667 27.306667-1.706667 17.066667 10.24 30.72 27.306667 32.426667 157.013333 11.946667 290.133333 128 320.853333 283.306667 27.306667 131.413333-23.893333 266.24-126.293333 348.16l10.24-35.84c5.12-15.36-3.413333-32.426667-20.48-37.546667-15.36-5.12-32.426667 3.413333-37.546667 20.48l-34.133333 112.64c-1.706667 8.533333-1.706667 17.066667 3.413333 23.893333 1.706667 3.413333 5.12 6.826667 8.533333 10.24 3.413333 1.706667 6.826667 3.413333 10.24 5.12l121.173333 23.893333C890.88 930.133333 907.946667 918.186667 909.653333 902.826667z" fill="#e6e6e6" /><path d="M406.186667 849.92c-157.013333-11.946667-290.133333-128-320.853333-283.306667-27.306667-131.413333 23.893333-264.533333 124.586667-346.453333l-10.24 34.133333c-3.413333 13.653333 1.706667 27.306667 11.946667 34.133333 1.706667 1.706667 5.12 3.413333 8.533333 3.413333 15.36 5.12 32.426667-3.413333 37.546667-20.48l34.133333-112.64c1.706667-8.533333 1.706667-17.066667-3.413333-23.893333-5.12-6.826667-11.946667-11.946667-20.48-13.653333L146.773333 97.28c-15.36-3.413333-32.426667 6.826667-34.133333 23.893333C109.226667 136.533333 119.466667 151.893333 136.533333 155.306667l46.08 8.533333c-124.586667 95.573333-187.733333 256-155.306667 413.013333 22.186667 110.933333 88.746667 204.8 179.2 262.826667 58.026667 37.546667 124.586667 61.44 196.266667 68.266667 17.066667 1.706667 30.72-10.24 32.426667-27.306667C435.2 865.28 423.253333 851.626667 406.186667 849.92z" fill="#e6e6e6" /></svg>